<svg xmlns="http://www.w3.org/2000/svg" xmlns:xlink="http://www.w3.org/1999/xlink" viewBox="0 0 42.2 57.41">
  <defs>
    <style>
      .cls-1 {
        fill: url(#linear-gradient-9);
        opacity: .7;
      }

      .cls-2 {
        fill: url(#linear-gradient-2);
      }

      .cls-3 {
        fill: url(#linear-gradient-10);
      }

      .cls-4 {
        fill: url(#linear-gradient-8);
        opacity: .58;
      }

      .cls-5 {
        fill: url(#linear-gradient-4);
      }

      .cls-6 {
        fill: url(#linear-gradient-3);
      }

      .cls-7 {
        fill: url(#linear-gradient-5);
      }

      .cls-8 {
        fill: url(#linear-gradient-6);
      }

      .cls-9 {
        fill: url(#linear-gradient-7);
        opacity: .6;
      }

      .cls-10 {
        fill: url(#linear-gradient);
      }
    </style>
    <linearGradient id="linear-gradient" x1=".26" y1="9.25" x2="31" y2="9.25" gradientUnits="userSpaceOnUse">
      <stop offset="0" stop-color="#27a9e1"/>
      <stop offset="1" stop-color="#2e338f"/>
    </linearGradient>
    <linearGradient id="linear-gradient-2" x1="22.02" y1="14.79" x2="22.02" y2=".06" gradientUnits="userSpaceOnUse">
      <stop offset="0" stop-color="#6c9322"/>
      <stop offset="1" stop-color="#174917"/>
    </linearGradient>
    <linearGradient id="linear-gradient-3" x1="8.63" y1="18.49" x2="8.63" y2="0" gradientUnits="userSpaceOnUse">
      <stop offset="0" stop-color="#323333"/>
      <stop offset="0" stop-color="#31333c"/>
      <stop offset=".02" stop-color="#303355"/>
      <stop offset=".04" stop-color="#2e337e"/>
      <stop offset=".04" stop-color="#2e338f"/>
      <stop offset=".19" stop-color="#2b3184"/>
      <stop offset=".44" stop-color="#232e67"/>
      <stop offset=".57" stop-color="#1f2c57"/>
      <stop offset=".87" stop-color="#65308d"/>
      <stop offset=".99" stop-color="#005b96"/>
      <stop offset="1" stop-color="#005b96"/>
    </linearGradient>
    <linearGradient id="linear-gradient-4" x1="24.78" y1="6.27" x2="36.72" y2="6.27" gradientUnits="userSpaceOnUse">
      <stop offset="0" stop-color="#6c9322"/>
      <stop offset="1" stop-color="#2b8936"/>
    </linearGradient>
    <linearGradient id="linear-gradient-5" x1="17" y1="25.85" x2="42.2" y2="25.85" gradientUnits="userSpaceOnUse">
      <stop offset="0" stop-color="#6c9322"/>
      <stop offset="1" stop-color="#b7ff1a"/>
    </linearGradient>
    <linearGradient id="linear-gradient-6" x1="0" y1="35.93" x2="30.5" y2="35.93" gradientUnits="userSpaceOnUse">
      <stop offset="0" stop-color="#e5e017"/>
      <stop offset=".14" stop-color="#fff803"/>
      <stop offset="1" stop-color="#d1352a"/>
    </linearGradient>
    <linearGradient id="linear-gradient-7" x1="15.69" y1="29.71" x2="30.5" y2="29.71" gradientUnits="userSpaceOnUse">
      <stop offset="0" stop-color="#ffff2e"/>
      <stop offset="1" stop-color="#ef7633"/>
    </linearGradient>
    <linearGradient id="linear-gradient-8" x1="10.95" y1="38.91" x2="30.5" y2="38.91" gradientUnits="userSpaceOnUse">
      <stop offset="0" stop-color="#f2cb27"/>
      <stop offset="1" stop-color="#ff0"/>
    </linearGradient>
    <linearGradient id="linear-gradient-9" x1="0" y1="20.83" x2="24.78" y2="20.83" gradientUnits="userSpaceOnUse">
      <stop offset="0" stop-color="#085e08"/>
      <stop offset="1" stop-color="#dce846"/>
    </linearGradient>
    <linearGradient id="linear-gradient-10" x1="20.07" y1="29.14" x2="42.2" y2="29.14" gradientUnits="userSpaceOnUse">
      <stop offset="0" stop-color="#f2ed38"/>
      <stop offset="1" stop-color="#b7ff2c"/>
    </linearGradient>
  </defs>
  <polygon class="cls-10" points=".26 18.49 10.16 0 31 .06 .26 18.49"/>
  <polygon class="cls-2" points="31 .06 24.78 12.48 17.07 14.79 13.03 9.8 31 .06"/>
  <polygon class="cls-6" points="17.26 14.72 10.16 0 .1 18.32 0 18.49 17.26 14.72"/>
  <polygon class="cls-5" points="24.78 12.48 36.72 9.64 31 .06 24.78 12.48"/>
  <polygon class="cls-7" points="36.55 9.38 42.2 18.93 28.75 42.33 17 14.46 36.55 9.38"/>
  <polygon class="cls-8" points="0 18.49 20.16 57.41 30.5 39.35 17 14.46 0 18.49"/>
  <polygon class="cls-9" points="15.69 29.18 30.5 39.35 20.07 20.07 15.69 29.18"/>
  <polygon class="cls-4" points="15.69 29.18 10.95 39.31 15.55 48.64 30.5 39.35 15.69 29.18"/>
  <polyline class="cls-1" points="0 18.49 15.69 29.18 20.07 20.07 17 14.26 20.07 20.07 24.78 12.48"/>
  <polygon class="cls-3" points="20.07 20.07 42.2 18.93 30.5 39.35 20.07 20.07"/>
</svg>