<svg xmlns="http://www.w3.org/2000/svg" xmlns:xlink="http://www.w3.org/1999/xlink" id="Layer_1" version="1.1" viewBox="0 0 300 83.45">
  <!-- Generator: Adobe Illustrator 29.6.0, SVG Export Plug-In . SVG Version: 2.1.1 Build 207)  -->
  <defs>
    <style>
      .st0 {
        fill: url(#linear-gradient2);
      }

      .st1 {
        fill: url(#linear-gradient8);
        opacity: .7;
      }

      .st2 {
        fill: url(#linear-gradient1);
      }

      .st3 {
        fill: url(#linear-gradient9);
      }

      .st4 {
        fill: url(#linear-gradient7);
        opacity: .58;
      }

      .st5 {
        fill: #39c;
      }

      .st6 {
        fill: url(#linear-gradient4);
      }

      .st7 {
        fill: url(#linear-gradient5);
      }

      .st8 {
        fill: url(#linear-gradient3);
      }

      .st9 {
        fill: url(#linear-gradient);
      }

      .st10 {
        fill: url(#linear-gradient6);
        opacity: .6;
      }
    </style>
    <linearGradient id="linear-gradient" x1=".26" y1="21.94" x2="31" y2="21.94" gradientUnits="userSpaceOnUse">
      <stop offset="0" stop-color="#27a9e1"/>
      <stop offset="1" stop-color="#2e338f"/>
    </linearGradient>
    <linearGradient id="linear-gradient1" x1="22.02" y1="27.49" x2="22.02" y2="12.76" gradientUnits="userSpaceOnUse">
      <stop offset="0" stop-color="#6c9322"/>
      <stop offset="1" stop-color="#174917"/>
    </linearGradient>
    <linearGradient id="linear-gradient2" x1="8.63" y1="31.19" x2="8.63" y2="12.7" gradientUnits="userSpaceOnUse">
      <stop offset="0" stop-color="#323333"/>
      <stop offset="0" stop-color="#31333c"/>
      <stop offset=".02" stop-color="#303355"/>
      <stop offset=".04" stop-color="#2e337e"/>
      <stop offset=".04" stop-color="#2e338f"/>
      <stop offset=".19" stop-color="#2b3184"/>
      <stop offset=".44" stop-color="#232e67"/>
      <stop offset=".57" stop-color="#1f2c57"/>
      <stop offset=".87" stop-color="#65308d"/>
      <stop offset=".99" stop-color="#005b96"/>
      <stop offset="1" stop-color="#005b96"/>
    </linearGradient>
    <linearGradient id="linear-gradient3" x1="24.78" y1="18.97" x2="36.72" y2="18.97" gradientUnits="userSpaceOnUse">
      <stop offset="0" stop-color="#6c9322"/>
      <stop offset="1" stop-color="#2b8936"/>
    </linearGradient>
    <linearGradient id="linear-gradient4" x1="17" y1="38.55" x2="42.2" y2="38.55" gradientUnits="userSpaceOnUse">
      <stop offset="0" stop-color="#6c9322"/>
      <stop offset="1" stop-color="#b7ff1a"/>
    </linearGradient>
    <linearGradient id="linear-gradient5" x1="0" y1="48.63" x2="30.5" y2="48.63" gradientUnits="userSpaceOnUse">
      <stop offset="0" stop-color="#e5e017"/>
      <stop offset=".14" stop-color="#fff803"/>
      <stop offset="1" stop-color="#d1352a"/>
    </linearGradient>
    <linearGradient id="linear-gradient6" x1="15.69" y1="42.41" x2="30.5" y2="42.41" gradientUnits="userSpaceOnUse">
      <stop offset="0" stop-color="#ffff2e"/>
      <stop offset="1" stop-color="#ef7633"/>
    </linearGradient>
    <linearGradient id="linear-gradient7" x1="10.95" y1="51.61" x2="30.5" y2="51.61" gradientUnits="userSpaceOnUse">
      <stop offset="0" stop-color="#f2cb27"/>
      <stop offset="1" stop-color="#ff0"/>
    </linearGradient>
    <linearGradient id="linear-gradient8" x1="0" y1="33.53" x2="24.78" y2="33.53" gradientUnits="userSpaceOnUse">
      <stop offset="0" stop-color="#085e08"/>
      <stop offset="1" stop-color="#dce846"/>
    </linearGradient>
    <linearGradient id="linear-gradient9" x1="20.07" y1="41.84" x2="42.2" y2="41.84" gradientUnits="userSpaceOnUse">
      <stop offset="0" stop-color="#f2ed38"/>
      <stop offset="1" stop-color="#b7ff2c"/>
    </linearGradient>
  </defs>
  <g>
    <polygon class="st9" points=".26 31.19 10.16 12.7 31 12.76 .26 31.19"/>
    <path class="st5" d="M10.16,12.7"/>
    <polygon class="st2" points="31 12.76 24.78 25.18 17.07 27.49 13.03 22.5 31 12.76"/>
    <polygon class="st0" points="17.26 27.42 10.16 12.7 .1 31.01 0 31.19 17.26 27.42"/>
    <polygon class="st8" points="24.78 25.18 36.72 22.34 31 12.76 24.78 25.18"/>
    <polygon class="st6" points="36.55 22.08 42.2 31.63 28.75 55.03 17 27.16 36.55 22.08"/>
    <polygon class="st7" points="0 31.19 20.16 70.1 30.5 52.05 17 27.16 0 31.19"/>
    <polygon class="st10" points="15.69 41.88 30.5 52.05 20.07 32.77 15.69 41.88"/>
    <polygon class="st4" points="15.69 41.88 10.95 52 15.55 61.34 30.5 52.05 15.69 41.88"/>
    <polyline class="st1" points="0 31.19 15.69 41.88 20.07 32.77 17 26.96 20.07 32.77 24.78 25.18"/>
    <polygon class="st3" points="20.07 32.77 42.2 31.63 30.5 52.05 20.07 32.77"/>
  </g>
  <g>
    <path d="M84.64,44.78c0,.88-.1,1.74-.29,2.58l-3.38,3.32h-12.94c.15.57.42,1.16.8,1.75.38.59.88,1.11,1.51,1.57.63.46,1.38.84,2.26,1.14.88.31,1.89.46,3.03.46,1.49,0,2.84-.17,4.04-.52,1.2-.34,2.36-.84,3.47-1.49l-.75,6.93c-.88.42-1.96.78-3.23,1.06-1.28.29-2.78.43-4.5.43-2.14,0-4.12-.32-5.96-.97-1.83-.65-3.43-1.58-4.81-2.81-1.37-1.22-2.45-2.68-3.23-4.38-.78-1.7-1.17-3.61-1.17-5.75s.36-3.99,1.09-5.67c.72-1.68,1.71-3.11,2.95-4.29,1.24-1.18,2.67-2.09,4.3-2.72,1.62-.63,3.35-.94,5.18-.94s3.41.29,4.84.86c1.43.57,2.65,1.34,3.67,2.29,1.01.96,1.78,2.06,2.32,3.29.53,1.24.8,2.53.8,3.87ZM76.96,44.72c0-1.03-.35-1.93-1.06-2.72-.71-.78-1.67-1.17-2.89-1.17s-2.37.41-3.35,1.23c-.98.82-1.61,1.9-1.92,3.23h9.17c.03-.11.05-.3.05-.57Z"/>
    <path d="M119.35,62.36c-.88-.04-1.77-.28-2.69-.71-.92-.44-1.75-1.05-2.52-1.84-.77-.78-1.38-1.74-1.86-2.89-.48-1.14-.72-2.46-.72-3.95V20.44h8.31v31.9c0,1.22.32,2.17.94,2.86.63.69,1.38,1.13,2.26,1.32l-3.72,5.84Z"/>
    <path d="M166.77,31.78v29.44h-8.88v-29.49h-11.05v-7.04h30.93v7.1h-10.99Z"/>
    <path d="M241.45,42.89c0,2.94-.55,5.59-1.66,7.96-1.11,2.37-2.58,4.38-4.41,6.04-1.83,1.66-3.93,2.94-6.3,3.84-2.37.9-4.81,1.35-7.33,1.35s-4.97-.45-7.33-1.35c-2.36-.89-4.46-2.18-6.27-3.84-1.81-1.66-3.27-3.67-4.38-6.04-1.11-2.37-1.66-5.02-1.66-7.96s.55-5.53,1.66-7.9c1.11-2.37,2.57-4.37,4.38-6.01,1.82-1.64,3.91-2.91,6.27-3.81,2.37-.89,4.81-1.34,7.33-1.34s4.96.45,7.33,1.34c2.37.9,4.47,2.17,6.3,3.81,1.83,1.64,3.3,3.65,4.41,6.01,1.11,2.37,1.66,5,1.66,7.9ZM232.46,42.89c0-1.72-.3-3.26-.89-4.64-.59-1.38-1.39-2.56-2.4-3.55-1.01-.99-2.16-1.76-3.44-2.29-1.28-.53-2.61-.8-3.98-.8s-2.7.27-3.98.8c-1.28.53-2.42,1.3-3.41,2.29-.99.99-1.79,2.18-2.38,3.55-.59,1.37-.89,2.92-.89,4.64s.3,3.28.89,4.67c.59,1.4,1.38,2.58,2.38,3.58.99.99,2.13,1.76,3.41,2.3,1.28.53,2.6.8,3.98.8s2.7-.27,3.98-.8c1.28-.54,2.42-1.3,3.44-2.3,1.01-.99,1.81-2.18,2.4-3.58.59-1.39.89-2.95.89-4.67Z"/>
    <path d="M285.73,61.44h-7.27l-13.35-36.76h9.11l5.73,16.09c.42,1.22.84,2.54,1.26,3.95.42,1.41.8,2.81,1.15,4.18h.12c.34-1.37.72-2.77,1.15-4.18.42-1.41.84-2.73,1.26-3.95l5.73-16.09h8.42l-13.29,36.76Z"/>
  </g>
</svg>